<?xml version="1.0" encoding="UTF-8"?>
<svg id="_圖層_1" data-name="圖層_1" xmlns="http://www.w3.org/2000/svg" version="1.1" viewBox="0 0 200 200">
  <!-- Generator: Adobe Illustrator 30.0.0, SVG Export Plug-In . SVG Version: 2.1.1 Build 123)  -->
  <g>
    <circle cx="100" cy="100.33" r="95.73" fill="#134ea5"/>
    <circle cx="100" cy="92.09" r="88.15" fill="#0c66ff"/>
    <path d="M80.26,87.23l11.9,3.07c-3.7,10.24-8.69,19.48-14.97,27.71-6.28,8.23-13.38,14.92-21.31,20.07-.53-.86-1.32-1.88-2.38-3.07-1.06-1.19-2.15-2.4-3.27-3.62-1.12-1.22-2.12-2.2-2.97-2.92,7.6-4.29,14.24-9.99,19.92-17.1,5.68-7.1,10.04-15.15,13.09-24.14ZM48.94,104.28c3.9-.33,8.61-.78,14.13-1.34,5.52-.56,11.18-1.17,17-1.83l.5,10.31c-5.22,1.06-10.41,2.05-15.56,2.97-5.15.93-9.95,1.82-14.37,2.68l-1.69-12.79ZM54.69,60.96h28.05v10.71h-15.76v36.97h-12.29v-47.68ZM65.69,49.76l15.76,1.39c-1.32,2.64-2.73,5.2-4.21,7.68-1.49,2.48-2.79,4.58-3.92,6.29l-11.1-2.18c.73-2.05,1.42-4.28,2.08-6.69.66-2.41,1.12-4.58,1.39-6.49ZM62.91,75.03h19.73v9.91h-19.73v-9.91ZM62.91,88.42h19.73v9.91h-19.73v-9.91ZM75.11,60.96h12.29v69.69c0,2.71-.28,4.94-.84,6.69-.56,1.75-1.67,3.16-3.32,4.21-1.65,1.06-3.55,1.72-5.7,1.98-2.15.26-4.68.4-7.58.4-.2-1.72-.66-3.77-1.39-6.15-.73-2.38-1.52-4.36-2.38-5.95,1.52.07,3.01.12,4.46.15,1.45.03,2.44.05,2.97.05s.91-.11,1.14-.35c.23-.23.35-.64.35-1.24V60.96ZM89.48,57.39l11-4.06c1.06,1.92,2.05,4,2.98,6.25.92,2.25,1.75,4.45,2.48,6.59.73,2.15,1.25,4.11,1.59,5.9l-11.8,4.56c-.2-1.78-.61-3.78-1.24-6-.63-2.21-1.37-4.48-2.23-6.79-.86-2.31-1.78-4.46-2.78-6.44ZM91.27,76.92h42.03v11.5h-29.64v55.41h-12.39v-66.91ZM105.94,93.57h8.62v34.4h-8.62v-34.4ZM109.8,49.86h12.69v36.58h-12.69v-36.58ZM110.5,93.57h15.86v29.64h-15.86v-8.92h6.94v-11.8h-6.94v-8.92ZM128.64,76.92h12.49v53.13c0,2.78-.3,5.09-.89,6.94-.59,1.85-1.75,3.3-3.47,4.36-1.72,1.06-3.7,1.72-5.95,1.98-2.25.26-4.86.4-7.83.4-.2-1.78-.68-3.92-1.44-6.39-.76-2.48-1.57-4.54-2.43-6.2,1.59.07,3.17.1,4.76.1h3.17c1.06,0,1.59-.5,1.59-1.49v-52.84ZM130.22,52.73l13.68,4.36c-1.65,3.44-3.3,6.86-4.96,10.26-1.65,3.4-3.17,6.29-4.56,8.67l-10.51-3.87c.79-1.78,1.6-3.8,2.43-6.05.83-2.25,1.59-4.54,2.28-6.89.69-2.35,1.24-4.51,1.64-6.49Z" fill="#fff"/>
  </g>
  <g>
    <polygon points="188.37 163.73 185.73 153.87 189 150.59 189.16 150.55 181.57 122.22 177.54 123.3 176.45 119.27 172.42 120.35 171.34 116.32 163.28 118.47 162.2 114.44 150.1 117.68 149.03 113.65 140.96 115.81 136.64 99.69 132.61 100.77 131.53 96.74 123.35 98.93 120.4 104.04 120.41 104.07 114.45 109.99 122 138.18 112.92 140.61 106.96 146.56 108.07 150.71 110.24 158.77 114.27 157.69 115.35 161.73 119.38 160.65 121.54 168.71 125.57 167.63 127.73 175.69 131.76 174.61 133.92 182.67 137.96 181.59 140.12 189.66 141.2 193.69 177.48 183.97 181.62 182.85 187.58 176.9 184.94 167.04 188.21 163.77 188.37 163.73"/>
    <polygon points="139.64 178.68 135.61 179.76 133.45 171.69 129.42 172.77 127.26 164.71 123.22 165.79 121.06 157.73 117.03 158.81 115.95 154.78 111.92 155.86 109.62 147.28 114.15 142.75 124.92 139.86 117.11 110.71 123.07 104.78 129.85 99.65 130.93 103.68 134.96 102.6 139.28 118.73 147.34 116.57 148.42 120.6 160.52 117.36 161.6 121.39 169.66 119.23 170.74 123.26 174.77 122.18 175.85 126.21 179.88 125.13 186.48 149.75 183.07 153.16 185.69 162.93 182.28 166.33 184.92 176.19 180.39 180.72 142.88 190.77 139.64 178.68" fill="#fff"/>
    <path d="M177.49,123.37l-1.08-4.03-4.03,1.08-1.08-4.03-8.06,2.16-1.08-4.03-12.1,3.24-1.08-4.03-8.06,2.16-4.32-16.13-4.03,1.08-1.08-4.03-8.06,2.16,1.08,4.03-4.03,1.08,9.72,36.28-4.03,1.08-1.08-4.03-12.1,3.24,1.08,4.03.54,2.02,1.62,6.05,4.03-1.08,1.08,4.03,4.03-1.08,2.16,8.06,4.03-1.08,2.16,8.06,4.03-1.08,2.16,8.06,4.03-1.08,2.16,8.06,1.08,4.03,36.28-9.72,4.03-1.08-3.24-12.09,4.03-1.08-3.24-12.09,4.03-1.08-7.56-28.22-4.03,1.08Z" fill="#fff"/>
    <g>
      <rect x="126.88" y="102.69" width="4.17" height="50.08" transform="translate(-28.66 37.73) rotate(-15)"/>
      <rect x="123.82" y="97.82" width="8.35" height="4.17" transform="translate(-21.5 36.53) rotate(-15)"/>
      <rect x="137.36" y="99.66" width="4.17" height="37.56" transform="translate(-25.91 40.13) rotate(-15)"/>
      <rect x="141.32" y="114.73" width="8.35" height="4.17" transform="translate(-25.29 41.66) rotate(-15.01)"/>
      <rect x="152.69" y="121.03" width="4.17" height="12.52" transform="translate(-27.64 44.33) rotate(-14.98)"/>
      <rect x="150.39" y="116.07" width="12.52" height="4.17" transform="translate(-25.24 44.57) rotate(-15)"/>
      <rect x="165.87" y="121.83" width="4.17" height="12.51" transform="translate(-27.43 47.84) rotate(-15)"/>
      <rect x="163.64" y="117.4" width="8.35" height="4.17" transform="translate(-25.2 47.49) rotate(-15)"/>
      <rect x="172.85" y="119.81" width="4.17" height="4.17" transform="translate(-25.6 49.46) rotate(-15.01)"/>
      <rect x="181.2" y="122.33" width="4.17" height="29.22" transform="translate(-29.2 52.11) rotate(-15)"/>
      <rect x="182.57" y="151.92" width="4.17" height="12.52" transform="translate(-34.67 53.22) rotate(-15.01)"/>
      <rect x="181.78" y="165.09" width="4.17" height="12.52" transform="translate(-38.09 53.45) rotate(-15.01)"/>
      <rect x="146.01" y="178.7" width="37.56" height="4.17" transform="translate(-41.17 48.81) rotate(-15)"/>
      <rect x="126.63" y="140.83" width="4.17" height="4.17" transform="translate(-32.57 38.14) rotate(-14.98)"/>
      <rect x="113.32" y="138.96" width="12.52" height="4.17" transform="translate(-32.42 35.74) rotate(-14.99)"/>
      <rect x="115.08" y="144" width="4.17" height="8.35" transform="translate(-34.37 35.39) rotate(-15.01)"/>
      <rect x="120.73" y="151.06" width="4.17" height="4.17" transform="translate(-35.47 37.03) rotate(-15.01)"/>
      <rect x="126.38" y="153.94" width="4.17" height="8.35" transform="translate(-36.55 38.65) rotate(-15)"/>
      <rect x="132.58" y="160.92" width="4.17" height="8.35" transform="translate(-38.14 40.48) rotate(-15)"/>
      <rect x="138.77" y="167.9" width="4.17" height="8.35" transform="translate(-39.72 42.29) rotate(-14.99)"/>
      <rect x="144.96" y="174.89" width="4.17" height="8.35" transform="translate(-41.29 44.1) rotate(-14.98)"/>
    </g>
  </g>
</svg>